<svg width="93" height="41" viewBox="0 0 93 41" fill="none" xmlns="http://www.w3.org/2000/svg">
<path d="M8.17978 30.3575C7.03708 30.3575 6.00125 30.1476 5.08052 29.7321C4.15978 29.3165 3.3788 28.7364 2.74168 27.9959C2.10457 27.2553 1.61132 26.3954 1.27015 25.4203C0.928986 24.4452 0.756348 23.3961 0.756348 22.2729C0.756348 21.6928 0.801562 21.1209 0.891992 20.5449C0.982421 19.973 1.10573 19.4258 1.26193 18.9074L3.51855 19.3394C3.39935 19.8578 3.30892 20.3515 3.24727 20.8206C3.18561 21.2896 3.15684 21.7298 3.15684 22.1412C3.15684 23.2974 3.37058 24.2766 3.79806 25.0788C4.22555 25.8811 4.81745 26.4942 5.56966 26.922C6.32187 27.3499 7.19327 27.5639 8.17978 27.5639C9.16628 27.5639 10.0377 27.354 10.7899 26.9303C11.5421 26.5065 12.1299 25.9017 12.5492 25.1035C12.9684 24.3054 13.1822 23.355 13.1822 22.2482V15.9205L15.6032 16.1385V22.2482C15.6032 23.3797 15.4347 24.437 15.0976 25.4121C14.7606 26.3872 14.2714 27.2471 13.6261 27.9876C12.9808 28.7282 12.2039 29.3083 11.2873 29.7239C10.3706 30.1394 9.33481 30.3575 8.17978 30.3575ZM11.8833 24.7374C10.8844 24.7374 10.013 24.5275 9.27315 24.1038C8.53327 23.68 7.95781 23.1122 7.54677 22.3963C7.13573 21.6804 6.93432 20.8946 6.93432 20.0347C6.93432 19.3353 7.06174 18.6894 7.3207 18.101C7.57966 17.5127 7.93726 16.9984 8.39763 16.5623C8.85389 16.1303 9.38413 15.7888 9.98837 15.542C10.5926 15.2951 11.2338 15.1717 11.9203 15.1717C12.5944 15.1717 13.252 15.2745 13.8892 15.4802C14.5263 15.686 15.0976 15.9081 15.6032 16.1509L14.592 18.6277C13.5809 18.1339 12.6889 17.8871 11.9203 17.8871C11.4147 17.8871 10.9708 17.9858 10.5844 18.1751C10.198 18.3685 9.89382 18.6235 9.67186 18.9445C9.4499 19.2654 9.33892 19.6151 9.33892 20.0018C9.33892 20.3639 9.44168 20.693 9.6472 20.9893C9.85272 21.2855 10.1446 21.52 10.5227 21.6928C10.9009 21.8656 11.3571 21.9561 11.8874 21.9561H14.6496V24.7415H11.8833V24.7374ZM10.5104 13.238C10.161 13.238 9.86916 13.1228 9.63487 12.8965C9.40057 12.6702 9.28137 12.3781 9.28137 12.0284C9.28137 11.654 9.40057 11.3536 9.63487 11.1232C9.86916 10.8928 10.161 10.7817 10.5104 10.7817C10.8598 10.7817 11.1516 10.8969 11.3859 11.1232C11.6202 11.3495 11.7394 11.654 11.7394 12.0284C11.7394 12.3781 11.6202 12.6661 11.3859 12.8965C11.1516 13.1269 10.8598 13.238 10.5104 13.238ZM13.326 13.238C12.9766 13.238 12.6848 13.1228 12.4505 12.8965C12.2162 12.6702 12.097 12.3781 12.097 12.0284C12.097 11.654 12.2162 11.3536 12.4505 11.1232C12.6848 10.8928 12.9766 10.7817 13.326 10.7817C13.6754 10.7817 13.9673 10.8969 14.2016 11.1232C14.4358 11.3495 14.555 11.654 14.555 12.0284C14.555 12.3781 14.4358 12.6661 14.2016 12.8965C13.9673 13.1269 13.6754 13.238 13.326 13.238Z" fill="#4EAF51"/>
<path d="M22.2868 24.7376C21.288 24.7376 20.4166 24.5277 19.6767 24.104C18.9368 23.6802 18.3614 23.1124 17.9503 22.3965C17.5393 21.6807 17.3379 20.8948 17.3379 20.0349C17.3379 19.3355 17.4653 18.6896 17.7161 18.1012C17.9709 17.5129 18.3285 16.9986 18.7889 16.5625C19.2492 16.1264 19.7836 15.789 20.3878 15.5422C20.988 15.2953 21.6333 15.1719 22.3197 15.1719C22.9938 15.1719 23.6515 15.2747 24.2886 15.4804C24.9257 15.6862 25.4971 15.9083 26.0027 16.1511L24.9915 18.6279C23.9927 18.0848 23.1007 17.8132 22.3197 17.8132C21.8141 17.8132 21.3702 17.9161 20.9838 18.1218C20.5975 18.3275 20.2933 18.5949 20.0713 18.9282C19.8494 19.2615 19.7384 19.6318 19.7384 20.0391C19.7384 20.4135 19.8411 20.7591 20.0467 21.08C20.2522 21.4009 20.544 21.6477 20.9222 21.8288C21.3003 22.0098 21.7566 22.1003 22.2868 22.1003H25.0491V24.7417H22.2868V24.7376ZM18.0983 29.7446V26.9593H21.4401C22.2334 26.9593 22.7924 26.8194 23.1089 26.5437C23.4295 26.2681 23.5899 25.8443 23.5899 25.2765V16.147H26.0109V25.2765C26.0109 26.2187 25.8218 27.021 25.4519 27.6916C25.0778 28.3622 24.5476 28.8683 23.8611 29.218C23.1747 29.5677 22.3691 29.7405 21.4401 29.7405H18.0983V29.7446ZM25.4478 24.7376V21.9522H28.1195V24.7376H25.4478ZM28.1195 24.7376V21.9522C28.2387 21.9522 28.3292 22.0797 28.3908 22.3307C28.4525 22.5817 28.4813 22.9149 28.4813 23.3264C28.4813 23.7501 28.4525 24.0875 28.3908 24.3467C28.3292 24.6059 28.2429 24.7376 28.1195 24.7376Z" fill="#4EAF51"/>
<path d="M27.1803 24.7374C27.0611 24.7374 26.9707 24.6098 26.909 24.3506C26.8474 24.0914 26.8186 23.7499 26.8186 23.3303C26.8186 22.9065 26.8474 22.5732 26.909 22.3264C26.9707 22.0795 27.0611 21.9561 27.1803 21.9561V24.7374ZM27.1803 24.7374V21.952C27.8298 21.952 29.8465 21.9355 30.4302 21.9067C31.0139 21.8779 31.5606 21.8368 32.0661 21.7874C32.1401 21.7751 32.2059 21.808 32.2634 21.8862C32.3251 21.9643 32.3868 22.0384 32.4525 22.1124C32.5183 22.1865 32.5799 22.2194 32.6416 22.2194C33.6158 22.0754 34.4214 21.8738 35.0544 21.6146C35.6874 21.3554 36.1601 21.0551 36.4725 20.7095C36.7849 20.368 36.9411 19.9895 36.9411 19.5781C36.9411 19.216 36.8507 18.8951 36.6698 18.6112C36.489 18.3273 36.2423 18.1051 35.9299 17.9406C35.6176 17.776 35.2476 17.6978 34.8283 17.6978C34.405 17.6978 34.035 17.7842 33.7103 17.9529C33.3856 18.1216 33.1307 18.3479 32.9499 18.6318C32.769 18.9157 32.6786 19.2242 32.6786 19.5616C32.6786 19.973 32.843 20.3557 33.1677 20.7095C33.4925 21.0633 33.9857 21.3719 34.6475 21.6311C35.3093 21.8903 36.1519 22.0919 37.1754 22.2359C37.2494 22.2482 37.3152 22.2153 37.3727 22.1371C37.4344 22.059 37.4919 21.9808 37.5536 21.9026C37.6152 21.8245 37.681 21.7915 37.7509 21.8039C38.2318 21.8532 38.7456 21.8903 39.2964 21.9108C39.8431 21.9355 40.4267 21.9479 41.0392 21.9479V24.7332C39.4608 24.7332 38.018 24.6263 36.7027 24.4164C35.3915 24.2066 34.2529 23.8857 33.2993 23.4578C32.3457 23.0299 31.5976 22.4786 31.0673 21.8039C30.5371 21.1291 30.274 20.3269 30.274 19.4011C30.274 18.5577 30.4795 17.8213 30.8865 17.1959C31.2975 16.5705 31.8442 16.0768 32.5306 15.7147C33.2171 15.3527 33.9775 15.1717 34.8078 15.1717C35.6504 15.1717 36.415 15.3486 37.1014 15.7065C37.7879 16.0645 38.3345 16.5582 38.7456 17.1877C39.1566 17.8171 39.358 18.5659 39.358 19.4217C39.358 20.2528 39.1525 20.9728 38.7333 21.5817C38.314 22.1906 37.7509 22.7008 37.0274 23.1081C36.304 23.5195 35.4819 23.8404 34.5612 24.075C33.6404 24.3095 32.6663 24.4782 31.6428 24.581C30.6275 24.6839 28.2038 24.7374 27.1803 24.7374ZM34.816 12.95C34.405 12.95 34.0638 12.8101 33.7884 12.5344C33.513 12.2588 33.3733 11.9132 33.3733 11.5058C33.3733 11.0821 33.513 10.7365 33.7884 10.4649C34.0638 10.1934 34.4091 10.0576 34.816 10.0576C35.2353 10.0576 35.5847 10.1934 35.856 10.4649C36.1272 10.7365 36.2629 11.0821 36.2629 11.5058C36.2629 11.9173 36.1272 12.2588 35.856 12.5344C35.5847 12.8101 35.2353 12.95 34.816 12.95ZM41.0474 24.7374V21.952C41.1666 21.952 41.2571 22.0795 41.3187 22.3305C41.3804 22.5815 41.4091 22.9147 41.4091 23.3262C41.4091 23.7499 41.3804 24.0873 41.3187 24.3465C41.2571 24.6057 41.1666 24.7374 41.0474 24.7374Z" fill="#4EAF51"/>
<path d="M41.0473 24.7372C40.9281 24.7372 40.8376 24.6096 40.776 24.3504C40.7143 24.0912 40.6855 23.7497 40.6855 23.3301C40.6855 22.9063 40.7143 22.5731 40.776 22.3262C40.8376 22.0793 40.9281 21.9559 41.0473 21.9559V24.7372ZM43.7026 15.6775H46.1031V24.7372H41.0473V21.9518H43.7026V15.6775ZM43.5012 13.7438C43.1518 13.7438 42.86 13.6286 42.6257 13.4023C42.3914 13.176 42.2722 12.8839 42.2722 12.5342C42.2722 12.1598 42.3914 11.8595 42.6257 11.6291C42.86 11.3987 43.1518 11.2876 43.5012 11.2876C43.8506 11.2876 44.1424 11.4028 44.3767 11.6291C44.611 11.8554 44.7302 12.1598 44.7302 12.5342C44.7302 12.8839 44.611 13.1719 44.3767 13.4023C44.1424 13.6327 43.8506 13.7438 43.5012 13.7438ZM46.3209 13.7438C45.9716 13.7438 45.6797 13.6286 45.4454 13.4023C45.2111 13.176 45.0919 12.8839 45.0919 12.5342C45.0919 12.1598 45.2111 11.8595 45.4454 11.6291C45.6797 11.3987 45.9716 11.2876 46.3209 11.2876C46.6703 11.2876 46.9622 11.4028 47.1965 11.6291C47.4308 11.8554 47.55 12.1598 47.55 12.5342C47.55 12.8839 47.4308 13.1719 47.1965 13.4023C46.9622 13.6327 46.6703 13.7438 46.3209 13.7438Z" fill="#4EAF51"/>
<g clip-path="url(#clip0_11173_103322)">
<path d="M84.1611 12.3384C83.4671 13.022 82.7612 13.7172 81.9709 14.4977C84.2083 16.6918 86.4536 18.8918 88.691 21.084C88.3135 21.4578 87.2656 22.4958 86.8782 22.8792C84.6467 20.6735 82.4191 18.4716 80.2289 16.3064C79.6312 16.8952 79.063 17.4548 78.4712 18.0378L76.8 19.6839C76.798 19.6819 76.798 19.6819 76.7961 19.68C76.0509 20.4004 75.3412 21.0859 74.5704 21.8315C76.4854 23.7081 78.4083 25.5905 80.3075 27.4535L81.9355 25.85L82.4801 25.3135L83.703 24.109C84.0235 24.4227 84.342 24.7364 84.6625 25.0482C84.2712 25.4413 83.8839 25.8267 83.4435 26.2683L83.4356 26.2605L79.6214 30.0175L79.586 29.9826C78.6108 30.9451 77.6356 31.9095 76.6565 32.8778C76.3006 32.5234 75.9212 32.1477 75.4768 31.7081C76.6231 30.6198 77.7654 29.5392 78.9372 28.4276C77.03 26.5646 75.1878 24.7655 73.3947 23.0129C71.5446 24.8255 69.6925 26.642 67.752 28.5438C68.8609 29.6205 69.9835 30.7089 71.0767 31.7701C70.713 32.1497 70.3433 32.5351 69.8872 33.0115C68.7704 31.8727 67.6734 30.7553 66.6589 29.7231C65.9117 30.4494 65.2059 31.1349 64.563 31.7604C66.3541 33.5285 68.1787 35.3276 70.0759 37.1984C71.1357 36.1255 72.2288 35.0216 73.3829 33.8539C74.5115 34.9868 75.6066 36.0887 76.6604 37.15C81.9079 31.9831 87.8004 26.1792 92.9968 21.0627C90.0673 18.1656 87.1083 15.2452 84.1611 12.3384ZM80.2505 23.1058C79.8416 22.7011 79.4346 22.2963 79.0276 21.8935L80.2309 20.7083C80.6398 21.1092 81.0507 21.512 81.4616 21.9148L80.2505 23.1058ZM73.2689 29.5856L72.042 28.3772L73.2689 27.1688L74.4957 28.3772L73.2689 29.5856Z" fill="#4EAF51"/>
<path d="M66.541 16.3876C64.7341 18.1635 62.9056 19.9606 61.0221 21.812C62.0307 22.7764 63.0511 23.7544 64.0833 24.742C63.6449 25.1565 63.2497 25.5302 62.882 25.8769C61.4802 24.4903 59.3902 22.4259 57.9137 20.9657C60.1315 18.7909 62.3787 16.5909 64.5788 14.4336C63.8749 13.7248 63.1809 13.0237 62.536 12.373C59.5751 15.2876 56.6141 18.2022 53.6787 21.0935C56.6023 23.9732 60.2278 27.5443 63.1809 30.455C66.1104 27.5501 69.0615 24.6239 71.9556 21.7539C70.1723 19.9838 68.3419 18.1712 66.541 16.3876ZM65.3003 21.7384L66.5272 20.53L67.754 21.7384L66.5272 22.9468L65.3003 21.7384Z" fill="#4EAF51"/>
<path d="M79.2049 11.2922L81.4404 13.4941L83.6759 11.2922L81.4404 9.09027L79.2049 11.2922Z" fill="#4EAF51"/>
<path d="M76.7025 13.7834L78.938 15.9854L81.1735 13.7834L78.938 11.5815L76.7025 13.7834Z" fill="#4EAF51"/>
<g clip-path="url(#clip1_11173_103322)">
<path d="M74.0917 2.13646L77.0128 4.8587L73.6281 8.40387L69.9367 4.96371L72.5947 2.17965C72.9962 1.75904 73.6659 1.73972 74.0917 2.13646Z" fill="#F9C233"/>
<path d="M73.3742 0.20752C75.3783 0.991844 77.3824 1.77068 79.3864 2.55775C79.2699 2.60163 79.1561 2.64825 79.0395 2.69213C79.045 2.95814 79.0506 3.22141 79.0561 3.48742C79.2726 3.53679 79.3531 3.81103 79.1977 3.9646C79.3615 4.36773 79.3698 4.81474 79.3864 5.2453C79.3642 5.25901 79.342 5.26998 79.3198 5.28369C79.2726 5.09721 79.231 4.90798 79.181 4.7215C79.1616 4.91895 79.1477 5.11641 79.1533 5.31386C79.0145 5.35499 78.8507 5.35499 78.7314 5.26449C78.6842 4.8312 78.6731 4.38144 78.798 3.95637C78.662 3.81377 78.7147 3.57792 78.8951 3.49839C78.8896 3.25158 78.8813 3.00476 78.8729 2.7552C78.2678 2.99105 77.6627 3.2269 77.0576 3.46548C77.0521 3.23512 77.0465 3.00476 77.041 2.77714C74.9397 1.32093 71.8392 0.978132 69.8213 2.76069C69.8185 3.00202 69.8185 3.24335 69.8157 3.48742C69.0219 3.16656 68.2253 2.84845 67.4314 2.52759C69.4133 1.75423 71.3951 0.980875 73.3742 0.20752Z" fill="#4EAF51"/>
<path d="M71.9198 2.0037C73.5824 1.54846 75.3534 2.0558 76.7634 2.96902C76.7662 3.57509 77.0235 4.2659 77.0263 4.87197C75.8272 4.83906 74.1709 4.96822 73.3854 5.95823H73.377C72.7442 4.85853 71.064 4.90104 69.9121 4.99976C69.9149 4.36627 70.0795 3.56412 70.0823 2.93063C70.6124 2.4891 71.2508 2.18469 71.9198 2.0037Z" fill="#4EAF51"/>
</g>
<path d="M71.1479 38.0208L73.3684 40.208L75.589 38.0208L73.3684 35.8336L71.1479 38.0208Z" fill="#F9C233"/>
<path d="M73.6017 16.8112L75.8372 19.0132L78.0726 16.8112L75.8372 14.6093L73.6017 16.8112Z" fill="#4EAF51"/>
<path d="M67.5691 15.6328L71.0029 19.0151L73.2384 16.8132L69.8046 13.4309L67.5691 15.6328Z" fill="#4EAF51"/>
<path d="M63.2634 11.3916L66.6973 14.7739L68.9328 12.572L65.4989 9.18967L63.2634 11.3916Z" fill="#4EAF51"/>
<path d="M66.3671 8.18567L73.4072 15.1201L75.6427 12.9182L68.6026 5.98374L66.3671 8.18567Z" fill="#F9C233"/>
<path d="M78.221 5.9845L71.1809 12.9189L73.4164 15.1209L80.4565 8.18643L78.221 5.9845Z" fill="#F9C233"/>
</g>
<defs>
<clipPath id="clip0_11173_103322">
<rect width="39.322" height="40" fill="white" transform="translate(53.678 0.20752)"/>
</clipPath>
<clipPath id="clip1_11173_103322">
<rect width="12.6762" height="9.07348" fill="white" transform="translate(66.7427 -0.687012)"/>
</clipPath>
</defs>
</svg>
