<svg width="40" height="41" viewBox="0 0 40 41" fill="none" xmlns="http://www.w3.org/2000/svg">
<rect x="0.5" y="0.5" width="38.7706" height="39.4146" rx="7.06098" stroke="#E5E5E5"/>
<path d="M24.4448 24.0083C24.4018 24.0455 23.0934 25.1749 23.1766 25.103C23.136 25.0569 21.7876 23.523 21.8725 23.6196L21.6812 23.4163C21.6812 23.4102 21.6751 23.4102 21.6751 23.4043C21.635 23.3592 20.6824 22.2842 20.7419 22.3514L22.0101 21.269C22.4869 21.8018 23.9752 23.4701 24.4448 24.0083Z" fill="#D0DCEE"/>
<path d="M22.8298 24.7084C22.7785 24.6506 20.6921 22.295 20.7421 22.3514L22.0102 21.269C22.0485 21.312 22.4725 21.7893 22.6265 21.9627C22.4693 22.2479 22.1253 22.4948 21.9863 22.8421C21.8966 23.0512 21.8966 23.3085 22.04 23.482C22.2077 23.6733 22.4948 23.7034 22.6981 23.8588C22.9284 24.0333 23.0314 24.4052 22.8298 24.7084Z" fill="#A5C0DD"/>
<path d="M17.1222 10C13.1233 10 10 13.2382 10 17.1117C10 21.0421 13.1971 24.2234 17.1222 24.2234C21.0973 24.2234 24.2392 20.9896 24.2392 17.1117C24.2392 13.176 21.0474 10 17.1222 10ZM17.1222 22.1869C14.3008 22.1869 12.0312 19.9082 12.0312 17.1117C12.0312 14.308 14.2993 12.0206 17.1222 12.0206C19.9184 12.0206 22.2028 14.2997 22.2028 17.1117C22.2028 19.9228 19.937 22.1869 17.1222 22.1869Z" fill="#D0DCEE"/>
<path d="M29.4298 29.8151L29.1427 30.0842C28.7001 30.5269 27.9464 30.5269 27.438 30.0723C25.2755 28.1455 24.7484 27.6873 23.1612 26.28C22.3539 25.5594 21.8653 24.2985 22.6229 23.5404C22.9347 23.2362 23.1374 22.9781 23.4423 22.8705C23.6756 22.7808 23.9328 22.7628 24.202 22.8047C24.2449 22.8146 24.5559 22.8864 24.513 22.8765C25.0281 23.0484 25.4439 23.3562 25.7692 23.7378C31.2265 30.2098 24.7077 22.4808 29.4597 28.1103C29.9071 28.6471 29.8488 29.426 29.4298 29.8151Z" fill="#0CA567"/>
<path d="M29.3459 28.236C29.2155 28.81 28.242 28.7366 27.5775 28.5054C26.5996 28.1668 25.6777 27.59 25.0382 26.7685C23.8507 25.2697 24.0661 23.4495 24.6809 22.9375C25.0694 23.0943 25.4582 23.3701 25.7717 23.74C26.1365 24.1727 24.4502 22.1723 29.3395 27.9724C29.3584 28.0602 29.371 28.1542 29.3459 28.236Z" fill="#0FBE75"/>
<path d="M24.1662 18.0971C24.1662 18.1151 24.1602 18.127 24.1602 18.145C23.9558 19.5075 23.379 20.7569 22.4794 21.7877C22.1493 22.1779 21.4762 22.794 20.9661 23.0857C20.9123 23.1275 20.8584 23.1635 20.8046 23.1934C20.8046 23.1994 20.7986 23.1994 20.7986 23.1994C16.0753 26.0326 10.002 22.6573 10.002 17.1101C10.002 15.8525 10.3587 14.4615 11.1025 13.3119C11.1025 13.3059 11.1085 13.2999 11.1145 13.294C11.1564 13.2281 11.1983 13.1623 11.2461 13.1025C10.9829 14.3586 10.8633 15.6327 11.0009 16.9008C11.2341 18.9644 12.239 21.0221 13.9916 22.1346C15.6844 23.2113 17.9095 23.2771 19.7578 22.5115C21.7285 21.6951 23.2493 20.0323 24.1662 18.0971Z" fill="#A5C0DD"/>
<path d="M21.6436 17.655C21.6436 18.9054 21.1899 20.0608 20.4302 20.9418C20.4038 20.9735 20.3774 20.9999 20.3511 21.0315C17.1299 23.7094 12.0312 21.4771 12.0312 17.1116C12.0312 15.8138 12.5166 14.6215 13.3238 13.7246C14.1943 13.0019 15.3233 12.564 16.5525 12.564C19.3592 12.564 21.6436 14.8378 21.6436 17.655Z" fill="#F2F8FD"/>
</svg>
