<svg width="18" height="18" viewBox="0 0 18 18" fill="none" xmlns="http://www.w3.org/2000/svg">
<g clip-path="url(#clip0_6930_167891)">
<path d="M0.696214 3.27297H3.46544C3.46544 4.17543 4.08644 4.90934 4.85006 4.90934H6.23468C6.99829 4.90934 7.61929 4.17543 7.61929 3.27297H17.3116C17.6938 3.27297 18.0039 2.90724 18.0039 2.45479C18.0039 2.00234 17.6938 1.63661 17.3116 1.63661H7.61929C7.61929 0.734153 6.99829 0.000244141 6.23468 0.000244141H4.85006C4.08644 0.000244141 3.46544 0.734153 3.46544 1.63661H0.696214C0.31406 1.63661 0.00390625 2.00234 0.00390625 2.45479C0.00390625 2.90724 0.31406 3.27297 0.696214 3.27297Z" fill="#851CBE"/>
<path d="M17.3116 8.18202H13.1578C13.1578 7.27956 12.5368 6.54565 11.7731 6.54565H10.3885C9.62491 6.54565 9.00391 7.27956 9.00391 8.18202H0.696214C0.31406 8.18202 0.00390625 8.54775 0.00390625 9.0002C0.00390625 9.45265 0.31406 9.81838 0.696214 9.81838H9.00391C9.00391 10.7208 9.62491 11.4547 10.3885 11.4547H11.7731C12.5368 11.4547 13.1578 10.7208 13.1578 9.81838H17.3116C17.6938 9.81838 18.0039 9.45265 18.0039 9.0002C18.0039 8.54775 17.6938 8.18202 17.3116 8.18202Z" fill="#851CBE"/>
<path d="M17.3116 14.7277H7.61929C7.61929 13.8252 6.99829 13.0913 6.23468 13.0913H4.85006C4.08644 13.0913 3.46544 13.8252 3.46544 14.7277H0.696214C0.31406 14.7277 0.00390625 15.0934 0.00390625 15.5459C0.00390625 15.9983 0.31406 16.364 0.696214 16.364H3.46544C3.46544 17.2665 4.08644 18.0004 4.85006 18.0004H6.23468C6.99829 18.0004 7.61929 17.2665 7.61929 16.364H17.3116C17.6938 16.364 18.0039 15.9983 18.0039 15.5459C18.0039 15.0934 17.6938 14.7277 17.3116 14.7277Z" fill="#851CBE"/>
</g>
<defs>
<clipPath id="clip0_6930_167891">
<rect width="18" height="18" fill="white"/>
</clipPath>
</defs>
</svg>
